<svg width="80" height="82" fill="none" xmlns="http://www.w3.org/2000/svg"><path fill="#C7A17A" d="M2 49.158h41.22v26.218H2z"/><path d="M43.22 57.023H78v-28.84H39.356v7.866h3.864v20.974z" fill="#C7A17A"/><path fill-rule="evenodd" clip-rule="evenodd" d="M80 9.139V3.956C80 1.813 78.263.07 76.129.07H40c-2.134 0-3.871 1.744-3.871 3.887V9.14c0 1.144.505 2.163 1.29 2.876v21.74H3.871C1.737 33.755 0 35.499 0 37.64v36.277c0 3.572 2.894 6.478 6.452 6.478h30.967c.442 0 .874-.045 1.29-.13v.13h37.42c2.134 0 3.871-1.744 3.871-3.887v-5.182a3.874 3.874 0 00-1.29-2.876V12.015A3.874 3.874 0 0080 9.139zm-2.58-5.183V9.14c0 .713-.58 1.295-1.291 1.295h-5.161V2.661h5.161c.711 0 1.29.581 1.29 1.295zM47.741 2.661v7.773h5.161V2.661h-5.161zm7.742 0h5.161v7.773h-5.161V2.661zm12.903 0h-5.161v7.773h5.161V2.661zM38.71 3.956c0-.714.579-1.295 1.29-1.295h5.161v7.773H40c-.711 0-1.29-.582-1.29-1.295V3.956zM2.58 73.918c0 2.143 1.737 3.887 3.872 3.887h30.967c2.135 0 3.871-1.744 3.871-3.887V44.119h-2.58v-2.59h2.58V37.64c0-.713-.579-1.295-1.29-1.295H3.871c-.711 0-1.29.582-1.29 1.296v3.886h33.548v2.591H2.581v29.799zm74.84 2.591c0 .715-.58 1.296-1.291 1.296H42.547a6.425 6.425 0 001.324-3.887v-3.887h32.258c.711 0 1.29.58 1.29 1.296v5.182zM43.87 67.44h32.258V13.025H40v20.73c2.134 0 3.871 1.744 3.871 3.886V67.44z" fill="#151D28"/><path fill-rule="evenodd" clip-rule="evenodd" d="M55.52 51.876c2.98 0 6.267-1.372 8.876-3.99 4.488-4.506 5.298-11.023 1.807-14.529-3.492-3.506-9.982-2.692-14.469 1.814-4.486 4.506-5.297 11.023-1.806 14.527 1.46 1.468 3.446 2.178 5.592 2.178zm7.052-5.822c-3.043 3.053-7.136 4.061-9.777 2.597L65.16 36.236c1.456 2.653.454 6.761-2.588 9.818zm-1.979-12.312c-2.292 0-4.917 1.133-7.036 3.26-3.042 3.057-4.044 7.165-2.588 9.817l12.35-12.4c-.802-.443-1.727-.677-2.726-.677zM15.604 54.605c-4.488 4.506-5.298 11.023-1.807 14.528 1.461 1.468 3.447 2.178 5.593 2.178 2.98 0 6.267-1.372 8.876-3.99 4.488-4.506 5.298-11.023 1.806-14.529-3.49-3.508-9.98-2.694-14.468 1.813zm1.824 1.832c2.12-2.127 4.745-3.26 7.037-3.26.998 0 1.923.234 2.725.678l-12.35 12.4c-1.456-2.654-.454-6.762 2.588-9.818zm-.762 11.648c2.641 1.464 6.734.456 9.777-2.597 3.042-3.057 4.043-7.165 2.588-9.818L16.666 68.085z" fill="#151D28"/></svg>