<svg width="75" height="82" fill="none" xmlns="http://www.w3.org/2000/svg"><path d="M9 18.143v.757c0 5.786 3.003 11.175 7.972 14.304h25.056C46.997 30.075 50 24.686 50 18.9v-.757H9z" fill="#C7A17A"/><path fill-rule="evenodd" clip-rule="evenodd" d="M67.257.07C71.527.07 75 3.555 75 7.842a7.776 7.776 0 01-5.16 7.32v65.232H5.321C2.475 80.395.16 78.07.16 75.212c0-2.858 2.314-5.182 5.16-5.182h10.467a9.067 9.067 0 01-2.41-4.143l-3.644-1.218a6.47 6.47 0 01-4.412-6.146v-8.077a6.467 6.467 0 014.41-6.145l3.332-1.114v-.363c0-.572.13-1.11.352-1.599a4.53 4.53 0 01-2.933-4.231c0-2.062 1.385-3.786 3.262-4.335-3.706-3.522-5.842-8.424-5.842-13.67v-3.373C3.633 15.617.16 12.13.16 7.844.16 3.556 3.633.069 7.903.069h59.354zM38.87 3.955c0-.714-.579-1.295-1.29-1.295H24.677a1.295 1.295 0 000 2.59H37.58c.711 0 1.29-.581 1.29-1.295zM2.741 7.843c0-2.858 2.315-5.182 5.162-5.182h13.14c-.144.406-.237.84-.237 1.295 0 2.143 1.737 3.887 3.87 3.887H37.58c2.134 0 3.871-1.744 3.871-3.887 0-.456-.093-.889-.237-1.295h13.14c2.847 0 5.162 2.324 5.162 5.182 0 2.858-2.315 5.182-5.162 5.182H7.903c-2.847 0-5.162-2.324-5.162-5.182zm51.613 25.912h5.162v-5.183h-5.162v5.183zm0 10.364h5.162v5.183h-5.162v-5.183zm0-2.59h5.162v-5.183h-5.162v5.182zm-2.58-15.548v25.912h7.742v18.138H43.888a9.058 9.058 0 002.724-6.478v-20.73c0-.57-.13-1.11-.352-1.598a4.53 4.53 0 002.933-4.231c0-2.06-1.385-3.785-3.262-4.335 3.706-3.523 5.843-8.426 5.843-13.67v-3.373h7.742v10.365h-7.742zm-2.581-6.992v-3.373h-38.71v3.373c0 1.058.132 2.091.327 3.105h6.125c3.557 0 6.452 2.906 6.452 6.478v3.887h18.648a16.194 16.194 0 007.158-13.47zm-37.675 5.697h5.417c2.134 0 3.87 1.744 3.87 3.886v3.887h-3.164a16.165 16.165 0 01-6.123-7.773zM44.677 35.05H14.999a1.942 1.942 0 00-1.935 1.944c0 1.071.868 1.943 1.935 1.943h29.678a1.942 1.942 0 001.935-1.943 1.942 1.942 0 00-1.935-1.944zM7.903 58.523v-8.077a3.883 3.883 0 012.646-3.689l2.515-.84v17.136l-2.515-.84a3.886 3.886 0 01-2.646-3.69zm7.742-15.7v20.73c0 3.572 2.894 6.478 6.451 6.478H37.58c3.557 0 6.452-2.906 6.452-6.478v-20.73c0-.714-.58-1.295-1.29-1.295H16.934c-.711 0-1.29.58-1.29 1.296zm51.612 34.982H5.322a2.588 2.588 0 01-2.58-2.591 2.589 2.589 0 012.58-2.592h56.774V15.616h5.161v62.189zm-7.148-64.78h7.148c2.847 0 5.162-2.324 5.162-5.182 0-2.858-2.315-5.182-5.162-5.182H60.11a7.751 7.751 0 010 10.364z" fill="#151D28"/><path fill="#333" d="M38.87 44.119h2.581v2.591H38.87zm-20.645 0h18.064v2.591H18.225z"/></svg>