<svg width="79" height="80" fill="none" xmlns="http://www.w3.org/2000/svg"><path d="M69.294 46.733a8.941 8.941 0 01-8.072 5.07v-5.07H17.778v5.07a8.94 8.94 0 01-8.072-5.07H5v27.886h69V46.733h-4.706z" fill="#C7A17A"/><path fill-rule="evenodd" clip-rule="evenodd" d="M71.212 41.446h3.815c2.103 0 3.815 1.705 3.815 3.8v30.397c0 2.094-1.712 3.8-3.815 3.8H3.816c-2.104 0-3.815-1.706-3.815-3.8V45.247c0-2.095 1.711-3.8 3.815-3.8H7.63v-1.266c0-4.122 2.58-7.823 6.359-9.36v-4.078c-3.778-1.537-6.359-5.237-6.359-9.36v-1.266c-4.207 0-7.63-3.408-7.63-7.6C0 4.328 3.424.92 7.63.92h63.582c4.208 0 7.63 3.408 7.63 7.599 0 4.19-3.422 7.599-7.63 7.599v1.266c0 4.123-2.58 7.825-6.358 9.36v4.078c3.778 1.536 6.358 5.238 6.358 9.359v1.266zm-8.902 8.76c3.604-.605 6.359-3.734 6.359-7.493V40.18c0-2.73-1.514-5.212-3.815-6.552v1.486c0 .507-.105.99-.286 1.432a5.053 5.053 0 011.557 3.634v2.533c0 2.357-1.624 4.343-3.815 4.906v2.588zm-41.963-34.09v1.267a2.5 2.5 0 01-.163.854 3.79 3.79 0 00-2.38-.854 3.79 3.79 0 00-2.381.854 2.494 2.494 0 01-.163-.854v-1.266h5.087zm-3.815 5.067v13.931a1.271 1.271 0 002.543 0V21.183a1.271 1.271 0 00-2.543 0zm5.042-.442c.828-.924 1.316-2.109 1.316-3.358v-1.266h2.543v1.266c0 2.73-1.513 5.212-3.815 6.552v-2.752c0-.107-.014-.211-.028-.315l-.016-.127zM15.996 38.44c-.447.462-.736 1.069-.736 1.74v1.266h5.087V40.18c0-.67-.289-1.278-.737-1.74-.54.292-1.15.473-1.806.473a3.778 3.778 0 01-1.807-.473zm5.336-1.894c.182-.442.286-.924.286-1.432v-1.486c2.302 1.342 3.815 3.823 3.815 6.552v1.266H22.89V40.18a5.05 5.05 0 00-1.558-3.634zm.286-9.803v4.078c3.778 1.536 6.359 5.236 6.359 9.36v1.267h22.889V40.18c0-4.122 2.58-7.824 6.358-9.36v-4.078c-3.778-1.537-6.358-5.239-6.358-9.36v-1.266h-22.89v1.266c0 4.123-2.58 7.823-6.358 9.36zm38.15 8.371V21.183a1.271 1.271 0 012.542 0v13.931a1.271 1.271 0 01-2.543 0zm3.651-16.877c.1-.272.163-.559.163-.854v-1.266h-5.086v1.266c0 .295.063.582.162.854a3.79 3.79 0 012.38-.854 3.79 3.79 0 012.381.854zm-6.15 2.504l-.015.11c-.015.11-.03.218-.03.332v2.752c-2.302-1.341-3.815-3.822-3.815-6.552v-1.266h2.543v1.266c0 1.25.489 2.434 1.317 3.358zm-.045 12.887c-2.302 1.34-3.815 3.821-3.815 6.552v1.266h2.543V40.18c0-1.4.59-2.698 1.558-3.634a3.765 3.765 0 01-.286-1.432v-1.486zm1.272 6.552c0-.671.288-1.278.736-1.74.54.292 1.15.473 1.807.473s1.266-.18 1.807-.473c.448.462.736 1.07.736 1.74v1.266h-5.086V40.18zm6.358-16.245c2.301-1.34 3.815-3.821 3.815-6.552V14.85c0-3.759-2.755-6.888-6.358-7.493v2.587c2.19.565 3.814 2.55 3.814 4.906v2.533c0 1.25-.488 2.434-1.316 3.359l.016.124v.001c.014.104.029.208.029.316v2.752zM2.544 8.518c0-2.794 2.281-5.066 5.086-5.066h63.582c2.805 0 5.086 2.272 5.086 5.066s-2.28 5.066-5.086 5.066h-.088c-.63-4.99-4.907-8.866-10.085-8.866h-1.272v7.6h1.272c.937 0 1.748.512 2.19 1.266H15.614a2.537 2.537 0 012.19-1.267h1.271V4.718h-1.271c-5.179 0-9.456 3.876-10.086 8.866H7.63c-2.805 0-5.086-2.272-5.086-5.066zm7.63 7.599v1.266c0 2.73 1.513 5.212 3.815 6.552v-2.752c0-.113.014-.221.03-.33l.014-.111c-.828-.925-1.316-2.11-1.316-3.359V14.85c0-2.357 1.624-4.342 3.815-4.906V7.357c-3.604.605-6.358 3.734-6.358 7.493v1.267zm0 24.063c0-2.73 1.513-5.212 3.815-6.552v1.486c0 .508.104.99.286 1.432a5.053 5.053 0 00-1.558 3.634v2.533c0 2.356 1.624 4.341 3.815 4.906v2.588c-3.604-.606-6.358-3.735-6.358-7.494V40.18zm64.853 36.728c.7 0 1.271-.569 1.271-1.267V45.246a1.27 1.27 0 00-1.271-1.267h-3.903c-.63 4.99-4.907 8.866-10.085 8.866h-1.272v-7.6h1.272c.937 0 1.748-.512 2.19-1.266H15.614a2.537 2.537 0 002.19 1.267h1.271v7.599h-1.271c-5.179 0-9.456-3.876-10.086-8.866H3.816c-.701 0-1.272.569-1.272 1.267V75.64c0 .698.57 1.267 1.272 1.267h71.21z" fill="#232C38"/><path d="M41.48 51.002v.004h.004l-.004-.004z" fill="#232C38"/><path fill-rule="evenodd" clip-rule="evenodd" d="M41.691 51.225c.047.051.094.103.142.153 5.154-2.994 11.266-2.704 14.926.841 1.941 1.883 3.01 4.508 3.01 7.389 0 3.668-1.693 7.414-4.646 10.276-3.044 2.952-6.929 4.476-10.556 4.476-2.86 0-5.562-.949-7.567-2.892l.005-.006c-.48.057-.964.095-1.456.095-3.627 0-7.51-1.524-10.556-4.476-2.952-2.863-4.646-6.61-4.646-10.277 0-2.882 1.07-5.506 3.01-7.388 4.546-4.407 12.675-3.695 18.123 1.586.074.072.143.148.211.223zm-1.985 1.592c-2.561-2.484-5.804-3.777-8.776-3.777-1.75 0-3.391.468-4.762 1.383l15.977 15.49c.938-1.29 1.437-2.865 1.437-4.635 0-2.989-1.413-6.072-3.876-8.461zm-12.94 12.45c-2.464-2.388-3.876-5.472-3.876-8.46 0-1.77.497-3.346 1.437-4.634L40.31 67.67c-3.694 2.475-9.474 1.545-13.544-2.401zm13.319 5.388c3.702 2.245 9.294 1.26 13.262-2.586 2.464-2.389 3.877-5.472 3.876-8.461 0-1.77-.499-3.346-1.437-4.634l-1.932 1.873-1.775-1.815 1.863-1.806c-2.793-1.86-6.829-1.801-10.443.148 1.596 2.284 2.504 4.877 2.6 7.455l4.463-4.327 1.775 1.816-6.854 6.646a9.733 9.733 0 01-2.368 3.703 9.877 9.877 0 01-3.03 1.988z" fill="#232C38"/><path fill="#232C38" d="M24.162 5.985h25.433v2.533H24.162zm27.976 0h2.543v2.533h-2.543z"/></svg>