<svg width="26" height="27" fill="none" xmlns="http://www.w3.org/2000/svg"><path d="M8.995 18.984c-2.25-3.829-2.255-7.809-2.026-9.661-5.27 2.507-8.422 7.89-6.3 12.716 2.498.249 6.002-.51 8.326-3.055z" fill="#415167"/><path d="M9.574 19.91c-2.052 2.177-5.577 3.407-8.268 3.244 2.457 3.547 8.991 5.107 14.877 1.685-2.52-.612-4.897-2.4-6.609-4.929z" fill="#415167"/><path d="M15.731 11.96c-3.52-3.899-3.812-7.62-3.328-10.062-3.637 2.085-5.413 7.43-3.988 12.878 1.59 6.228 7.242 10.94 12.543 8.568.165-1.75-.053-5.676-5.227-11.384z" fill="#415167"/><path d="M25.525 10.19C23.91 3.982 18.512-.307 13.6 1.35c-.718 2.334-.617 6.087 2.935 9.91 1.611 1.896 5.594 6.386 5.52 11.47 3.264-2.295 4.79-7.364 3.471-12.542z" fill="#415167"/></svg>