<svg width="19" height="18" fill="none" xmlns="http://www.w3.org/2000/svg"><path d="M1.45 1.664h13.372c.04 0 .077.015.115.027L15.266.59a.818.818 0 01.78-.59h1.631c.226 0 .408.186.408.416v.832c0 .23-.182.416-.408.416H16.65l-2.549 8.54.952 1.133c.377.448.546 1.064.373 1.627-.222.719-.844 1.179-1.562 1.179H2.176a.412.412 0 01-.408-.416v-.832c0-.23.183-.416.408-.416h11.688l-1.293-1.538c-.033-.04-.056-.083-.081-.126H4.585a1.63 1.63 0 01-1.477-.956L.261 3.691a1.373 1.373 0 01-.124-.57v-.118c0-.74.588-1.34 1.314-1.34z" fill="#F9FBFF"/><path d="M13.278 18c-.885 0-1.603-.72-1.603-1.607 0-.888.718-1.607 1.603-1.607s1.602.72 1.602 1.607S14.163 18 13.278 18zm-9.616 0c-.885 0-1.602-.72-1.602-1.607 0-.888.717-1.607 1.602-1.607.885 0 1.603.72 1.603 1.607S4.547 18 3.662 18z" fill="#fff"/></svg>